<svg xmlns="http://www.w3.org/2000/svg" viewBox="0 0 96 96" fill="none">
  <defs>
    <linearGradient id="bgOcean" x1="12" y1="10" x2="84" y2="92" gradientUnits="userSpaceOnUse">
      <stop offset="0" stop-color="#04244E"/>
      <stop offset="0.52" stop-color="#083A73"/>
      <stop offset="1" stop-color="#0A2C57"/>
    </linearGradient>
    <linearGradient id="aGlow" x1="23" y1="22" x2="73" y2="80" gradientUnits="userSpaceOnUse">
      <stop offset="0" stop-color="#FFFFFF"/>
      <stop offset="1" stop-color="#DDF3FF"/>
    </linearGradient>
    <linearGradient id="accent" x1="36" y1="19" x2="63" y2="82" gradientUnits="userSpaceOnUse">
      <stop offset="0" stop-color="#9CF3FF"/>
      <stop offset="1" stop-color="#BFA9FF"/>
    </linearGradient>
  </defs>

  <rect x="4" y="4" width="88" height="88" rx="22" fill="url(#bgOcean)"/>
  <circle cx="48" cy="50" r="35" fill="rgba(121, 217, 255, 0.08)"/>

  <path d="M24 71L43.8 20.8C44.7 18.6 46.1 17.5 48 17.5C49.9 17.5 51.3 18.6 52.2 20.8L72 71" stroke="url(#aGlow)" stroke-width="5.6" stroke-linecap="round" stroke-linejoin="round"/>
  <path d="M31 48.4H64.8" stroke="url(#aGlow)" stroke-width="4.8" stroke-linecap="round"/>

  <path d="M48 24V72" stroke="url(#aGlow)" stroke-width="5.6" stroke-linecap="round"/>
  <path d="M37.8 30.8H58.2" stroke="url(#aGlow)" stroke-width="4.8" stroke-linecap="round"/>
  <path d="M48 72L39.5 81.2H45.2V86H50.8V81.2H56.5L48 72Z" stroke="url(#aGlow)" stroke-width="4" stroke-linejoin="round"/>

  <path d="M28.2 56.6C21.2 57.3 18.5 65.6 23.6 70.2" stroke="url(#accent)" stroke-width="3.2" stroke-linecap="round"/>
  <path d="M25.6 61.3C19.7 62.6 18.2 69 22.2 72.8" stroke="url(#accent)" stroke-width="2.6" stroke-linecap="round"/>
  <path d="M67.8 56.6C74.8 57.3 77.5 65.6 72.4 70.2" stroke="url(#accent)" stroke-width="3.2" stroke-linecap="round"/>
  <path d="M70.4 61.3C76.3 62.6 77.8 69 73.8 72.8" stroke="url(#accent)" stroke-width="2.6" stroke-linecap="round"/>

  <circle cx="35.6" cy="35.2" r="1.7" fill="#DDF7FF"/>
  <circle cx="60.4" cy="35.2" r="1.7" fill="#DDF7FF"/>
</svg>
